<svg aria-hidden="true" style="position:absolute;width:0;height:0" xmlns="http://www.w3.org/2000/svg" overflow="hidden"><defs><symbol id="icon-astronaut" viewBox="0 0 32 32"><path fill="var(--color1, #2196f3)" d="M31.974 4.524a.534.534 0 00-.43-.363l-1.91-.278-.855-1.731c-.179-.365-.777-.365-.956 0l-.855 1.731-1.91.278a.535.535 0 00-.296.91l1.383 1.348-.326 1.903c-.034.2.048.402.212.522a.53.53 0 00.562.04l1.709-.899 1.709.899a.536.536 0 00.775-.563l-.326-1.903 1.383-1.348a.536.536 0 00.135-.547zm-2.463 1.327a.534.534 0 00-.153.472l.191 1.114-1-.526a.533.533 0 00-.498 0l-1.001.526.191-1.114a.534.534 0 00-.153-.472l-.81-.789 1.119-.163a.532.532 0 00.402-.292l.5-1.013.5 1.013a.535.535 0 00.402.292l1.119.163-.809.789zM26.134 20.522h-1.067v1.067h1.067v-1.067zM26.134 22.656h-1.067v1.067h1.067v-1.067zM27.2 21.589h-1.067v1.067H27.2v-1.067zM25.067 21.589H24v1.067h1.067v-1.067zM22.4 26.389h-1.067v1.067H22.4v-1.067zM22.4 28.522h-1.067v1.067H22.4v-1.067zM23.467 27.456H22.4v1.067h1.067v-1.067zM21.333 27.456h-1.067v1.067h1.067v-1.067zM16 24.256h-1.067v1.067H16v-1.067zM16 26.389h-1.067v1.067H16v-1.067zM17.067 25.322H16v1.067h1.067v-1.067zM14.933 25.322h-1.067v1.067h1.067v-1.067zM5.867 6.122H4.8v1.067h1.067V6.122zM5.867 8.255H4.8v1.067h1.067V8.255z"/><path fill="var(--color1, #2196f3)" d="M6.933 7.189H5.866v1.067h1.067V7.189zM4.8 7.189H3.733v1.067H4.8V7.189z"/><path fill="var(--color2, #212121)" d="M24.715 14.159a1.775 1.775 0 00-1.188-.705 1.778 1.778 0 00-1.34.352l-1.252.96-1.898 1.417-1.358-.541c2.421-1.086 4.114-3.508 4.114-6.32 0-3.823-3.123-6.933-6.961-6.933s-6.961 3.11-6.961 6.933a6.86 6.86 0 001.12 3.758l-2.764-.024h-.005c-.009 0-.015.004-.023.005a.515.515 0 00-.155.031l-.038.013c-.006.003-.013.003-.019.006l-3.233 1.596-.001.001-1.893.911a.397.397 0 00-.063.035 1.779 1.779 0 00-.598 2.295c.22.429.595.745 1.056.889a1.776 1.776 0 001.378-.128l1.388-.738 2.264-1.169 1.357-.008L2.2 22.211l-.002.001-1.339 1.333c-.316.315-.49.732-.49 1.178s.174.863.49 1.179c.325.323.752.485 1.179.485s.854-.162 1.18-.485l1.314-1.309 1.741-1.3.901.897-1.762 1.754-.002.001-1.339 1.333c-.316.315-.49.732-.49 1.178s.174.863.49 1.179c.325.323.753.485 1.18.485s.855-.162 1.18-.485l3.482-3.467.001-.002 1.01-1-.004-.004c.006-.006.015-.009.022-.015l5.166-5.658 3.471.494a.52.52 0 00.262-.033c.018-.006.033-.015.05-.023.019-.01.039-.015.058-.027l3.213-2.133c.012-.008.018-.021.029-.029.013-.01.029-.014.041-.026l1.271-1.191c.662-.62.753-1.635.212-2.362zM2.13 17.77a.714.714 0 01-.558.052.717.717 0 01-.213-1.26l1.314-.632.449 1.312-.992.528zm3.498-1.828l-1.548.8-.439-1.283 2.027-1.001-.04 1.484zm15.099-6.62a5.79 5.79 0 01-.599 2.559l-4.181-1.899a1.863 1.863 0 00-.788-1.388l1.464-4.86c2.378.756 4.105 2.974 4.105 5.588zm-11.789 0c0-3.235 2.644-5.867 5.894-5.867.253 0 .5.021.745.052l-1.432 4.754c-.019-.001-.037-.006-.057-.006-1.033 0-1.873.837-1.873 1.867s.84 1.867 1.873 1.867c.694 0 1.294-.383 1.618-.945l3.862 1.755a5.894 5.894 0 01-4.737 2.39c-3.25 0-5.894-2.632-5.894-5.867zm5.956.8c0 .441-.362.8-.806.8s-.806-.359-.806-.8c0-.441.362-.8.806-.8s.806.359.806.8zM2.465 25.146a.608.608 0 01-.854.001.592.592 0 010-.844l.962-.958.851.848-.959.955zm3.214 3.734a.608.608 0 01-.855.001.592.592 0 010-.844l.963-.959.852.848-.96.955zm3.481-3.469l-.002.001-1.765 1.76-.852-.848 1.763-1.755.002-.001c.04-.04.065-.088.09-.135.007-.014.02-.026.026-.04.017-.041.019-.085.026-.129.003-.025.014-.047.014-.073 0-.036-.013-.07-.02-.106-.006-.032-.006-.065-.019-.095a.55.55 0 00-.091-.138c-.01-.012-.014-.027-.025-.038h-.001l-.001-.002-1.607-1.6c-.017-.017-.039-.024-.058-.038a.507.507 0 00-.087-.058.515.515 0 00-.093-.033.507.507 0 00-.103-.02.5.5 0 00-.095.005.53.53 0 00-.104.02.477.477 0 00-.094.045c-.02.011-.042.015-.061.029L4.23 23.486l-.901-.897 2.399-2.386 4.361 4.289-.928.919zm6.819-7.017c-.015-.002-.03.004-.045.003a.556.556 0 00-.3.075.492.492 0 00-.083.061c-.013.011-.028.017-.04.029l-4.698 5.146-4.328-4.257 2.833-2.818a.534.534 0 00-.379-.911v-.001l-2.219.013.028-1.607 3.104.027a6.947 6.947 0 004.981 2.101c.437 0 .864-.045 1.279-.123.04.032.079.065.13.085l2.41.96.331 1.644-3.003-.427zm4.041.178l-.313-1.558 1.446-1.08.947 1.257-2.08 1.381zm3.754-2.831l-.838.785-.931-1.236.831-.637a.735.735 0 01.543-.143.718.718 0 01.48.284.713.713 0 01-.085.947z"/><path fill="var(--color2, #212121)" d="M13.602 18.544l-2.143-2.133a.534.534 0 00-.753 0l-2.142 2.133a.537.537 0 000 .756l2.142 2.133a.536.536 0 00.753 0l2.143-2.133a.535.535 0 000-.756zm-2.519 1.759l-1.387-1.381 1.387-1.381 1.387 1.381-1.387 1.381zM17.164 5.071l-.258 1.036c.071.018 1.738.452 1.738 2.149h1.067c0-2.017-1.666-2.965-2.547-3.185zM19.711 9.322h-1.067v1.067h1.067V9.322z"/></symbol><symbol id="icon-clock" viewBox="0 0 32 32"><path fill="var(--color2, #212121)" d="M31.296 15.301C31.295 6.849 24.441-.002 15.988 0S.685 6.855.687 15.308c.002 6.788 4.422 12.543 10.541 14.545l.108.031a.667.667 0 00.529-.065.636.636 0 00.283-.357l3.865-12.25a1.913 1.913 0 10-.852-3.63l.011-.005-5.106-5.107a.638.638 0 00-.902.902l5.103 5.109a1.847 1.847 0 00-.191.826c0 .602.283 1.137.723 1.48l.004.003-3.682 11.673C3.843 25.782.117 17.709 2.797 10.431S13.551-.573 20.829 2.108c7.278 2.681 11.004 10.754 8.323 18.032-1.345 3.581-4.003 6.406-7.374 7.938l-.088.036-.398-1.874a.639.639 0 00-1.05-.343l.001-.001-3.837 3.426a.637.637 0 00.227 1.083l.005.001 4.899 1.563a.637.637 0 00.818-.744l.001.004-.391-1.839c5.528-2.374 9.329-7.772 9.329-14.057v-.034.002zm-15.304-.637a.638.638 0 010 1.276.638.638 0 010-1.276zm2.1 14.864l2.184-1.948.603 2.84-2.787-.892z"/><path fill="var(--color1, #2196f3)" d="M15.354 3.185V4.46a.638.638 0 001.276 0V3.185a.638.638 0 10-1.276 0zM3.876 14.664a.638.638 0 000 1.276h1.275a.638.638 0 000-1.276H3.876zm24.232 1.275a.638.638 0 000-1.276h-1.275a.638.638 0 000 1.276h1.275z"/></symbol><symbol id="icon-convert" viewBox="0 0 43 32"><path d="M38.667 0H4C1.795 0 0 1.795 0 4v24c0 2.205 1.795 4 4 4h34.667c2.205 0 4-1.795 4-4V4c0-2.205-1.795-4-4-4zm0 2.667c.181 0 .355.037.512.104L21.334 18.238 3.489 2.771c.151-.065.327-.104.512-.104h34.667zm0 26.666H4A1.333 1.333 0 012.667 28V5.587l17.792 15.421c.233.203.539.327.875.327s.642-.124.876-.328l-.002.001L40 5.587V28c0 .736-.597 1.333-1.333 1.333z"/></symbol><symbol id="icon-diagram" viewBox="0 0 32 32"><path d="M14.926 14.965h1.066v4.798h-1.066v-4.798zm4.264 2.132h1.066v2.665H19.19v-2.665zm-8.529 1.599h1.066v1.066h-1.066v-1.066zm-3.198-.533h1.066v1.599H7.463v-1.599z"/><path  d="M1.599 28.291h25.586a1.6 1.6 0 001.599-1.599V24.56a1.6 1.6 0 00-1.599-1.599h-.533V9.667l3.028-2.868a1.608 1.608 0 10-.742-.752l-.004-.01-2.281 2.162v-1.23a1.6 1.6 0 00-1.599-1.599H3.731a1.6 1.6 0 00-1.599 1.599v15.992h-.533A1.6 1.6 0 000 24.56v2.132a1.6 1.6 0 001.599 1.599zM30.384 4.837a.533.533 0 010 1.066.533.533 0 010-1.066zM3.198 6.969c0-.294.239-.533.533-.533h21.323c.294 0 .533.239.533.533v2.239l-1.066 1.013V8.036a.534.534 0 00-.534-.534H4.798a.534.534 0 00-.534.533v13.327c0 .294.239.533.534.533h19.189a.534.534 0 00.534-.533v-9.675l1.066-1.01V22.96H3.198V6.969zm4.798 6.93h-.005a1.6 1.6 0 101.112 2.748l1.853.93a.535.535 0 00.636-.122l3.939-4.432 3.872 2.902a.534.534 0 00.686-.039l3.365-3.188v8.131H5.331V8.568h18.123v2.661l-3.771 3.572-3.904-2.927a.534.534 0 00-.718.071v.001l-3.993 4.493-1.493-.746c.011-.064.017-.128.02-.193a1.6 1.6 0 00-1.599-1.599zm.533 1.599a.533.533 0 01-1.066 0 .533.533 0 011.066 0zm3.198 8.528h5.33v.533a.533.533 0 01-.533.533h-4.265a.533.533 0 01-.533-.533v-.533zm-10.66.534c0-.294.238-.533.533-.533h9.062v.533a1.6 1.6 0 001.599 1.599h4.265a1.6 1.6 0 001.599-1.599v-.533h9.062c.294 0 .533.239.533.533v2.132a.533.533 0 01-.533.533H1.601a.533.533 0 01-.533-.533V24.56z"/></symbol><symbol id="icon-Ellipse" viewBox="0 0 32 32"><path fill="var(--color1, #2196f3)" d="M32 16v.02a15.9 15.9 0 01-4.686 11.293A15.902 15.902 0 0116.021 32H16h.001-.02a15.9 15.9 0 01-11.293-4.686A15.902 15.902 0 01.001 16.021V16v-.019A15.9 15.9 0 014.687 4.688 15.902 15.902 0 0115.98.001h.021H16h.02a15.9 15.9 0 0111.293 4.686A15.902 15.902 0 0132 15.98v.021V16z"/><path fill="var(--color4, #fff)" d="M23.258 13.004c-.033-.773-.159-1.304-.337-1.764a3.57 3.57 0 00-.841-1.29l-.001-.001a3.583 3.583 0 00-1.263-.83l-.024-.008c-.463-.179-.991-.304-1.764-.337-.778-.037-1.025-.046-3.001-.046s-2.222.009-2.998.043c-.773.033-1.304.159-1.764.338a3.58 3.58 0 00-1.29.84l-.001.001c-.36.354-.645.784-.83 1.263l-.008.024c-.18.463-.304.991-.338 1.764-.037.778-.046 1.025-.046 3.001s.009 2.222.043 2.998c.034.773.159 1.304.338 1.764.194.505.48.935.84 1.29h.001c.364.369.804.656 1.287.838.463.18.992.305 1.764.338.776.034 1.023.043 2.998.043s2.222-.009 2.998-.043c.773-.033 1.304-.159 1.764-.337a3.741 3.741 0 002.12-2.104l.009-.025c.179-.463.304-.992.338-1.764.034-.776.042-1.023.042-2.998s-.003-2.222-.036-2.998zm-1.309 5.939c-.032.711-.151 1.094-.25 1.349a2.428 2.428 0 01-1.365 1.376l-.016.006c-.255.099-.641.218-1.349.249-.767.034-.997.043-2.938.043s-2.174-.009-2.938-.043c-.711-.031-1.094-.151-1.35-.25a2.237 2.237 0 01-.834-.542l-.001-.001a2.268 2.268 0 01-.538-.819l-.005-.016c-.099-.256-.218-.642-.249-1.35-.034-.767-.043-.998-.043-2.938s.009-2.175.043-2.938c.031-.711.151-1.094.249-1.35.122-.328.308-.608.545-.835l.001-.001c.229-.235.509-.42.821-.537l.016-.005c.255-.099.641-.218 1.349-.25.767-.033.998-.042 2.938-.042 1.943 0 2.174.008 2.938.042.711.031 1.094.151 1.35.25.315.116.602.301.835.543.241.236.426.52.543.836.099.255.218.641.249 1.349.034.767.043.997.043 2.938s-.009 2.167-.043 2.935z"/><path fill="var(--color4, #fff)" d="M16.027 12.265h-.001a3.737 3.737 0 103.737 3.737v-.001a3.737 3.737 0 00-3.737-3.737zm0 6.16a2.424 2.424 0 110-4.848 2.424 2.424 0 110 4.848zm4.757-6.308a.873.873 0 01-1.746 0 .873.873 0 011.746 0z"/></symbol><symbol id="icon-instagram" viewBox="0 0 32 32">
<path d="M31.969 9.408c-0.075-1.7-0.35-2.869-0.744-3.882-0.406-1.075-1.032-2.038-1.851-2.838-0.8-0.813-1.769-1.444-2.832-1.844-1.019-0.394-2.182-0.669-3.882-0.744-1.713-0.081-2.257-0.1-6.601-0.1s-4.888 0.019-6.595 0.094c-1.7 0.075-2.869 0.35-3.882 0.744-1.075 0.406-2.038 1.031-2.838 1.85-0.813 0.8-1.444 1.769-1.844 2.832-0.394 1.019-0.669 2.182-0.744 3.882-0.081 1.713-0.1 2.257-0.1 6.601s0.019 4.888 0.094 6.595c0.075 1.7 0.35 2.869 0.744 3.882 0.406 1.075 1.038 2.038 1.85 2.838 0.8 0.813 1.769 1.444 2.832 1.844 1.019 0.394 2.182 0.669 3.882 0.744 1.706 0.075 2.25 0.094 6.595 0.094s4.888-0.019 6.595-0.094c1.7-0.075 2.869-0.35 3.882-0.744 2.151-0.832 3.851-2.532 4.682-4.682 0.394-1.019 0.669-2.182 0.744-3.882 0.075-1.707 0.094-2.251 0.094-6.595s-0.006-4.888-0.081-6.595zM29.087 22.473c-0.069 1.563-0.331 2.407-0.55 2.969-0.538 1.394-1.644 2.5-3.038 3.038-0.563 0.219-1.413 0.481-2.969 0.55-1.688 0.075-2.194 0.094-6.464 0.094s-4.782-0.019-6.464-0.094c-1.563-0.069-2.407-0.331-2.969-0.55-0.694-0.256-1.325-0.663-1.838-1.194-0.531-0.519-0.938-1.144-1.194-1.838-0.219-0.563-0.481-1.413-0.55-2.969-0.075-1.688-0.094-2.194-0.094-6.464s0.019-4.782 0.094-6.464c0.069-1.563 0.331-2.407 0.55-2.969 0.256-0.694 0.663-1.325 1.2-1.838 0.519-0.531 1.144-0.938 1.838-1.194 0.563-0.219 1.413-0.481 2.969-0.55 1.688-0.075 2.194-0.094 6.464-0.094 4.276 0 4.782 0.019 6.464 0.094 1.563 0.069 2.407 0.331 2.969 0.55 0.694 0.256 1.325 0.662 1.838 1.194 0.531 0.519 0.938 1.144 1.194 1.838 0.219 0.563 0.481 1.413 0.55 2.969 0.075 1.688 0.094 2.194 0.094 6.464s-0.019 4.77-0.094 6.458z"></path>
<path d="M16.059 7.783c-4.538 0-8.22 3.682-8.22 8.22s3.682 8.22 8.22 8.22c4.539 0 8.22-3.682 8.22-8.22s-3.682-8.22-8.22-8.22zM16.059 21.335c-2.944 0-5.332-2.388-5.332-5.332s2.388-5.332 5.332-5.332c2.944 0 5.332 2.388 5.332 5.332s-2.388 5.332-5.332 5.332z"></path>
<path d="M26.524 7.458c0 1.060-0.859 1.919-1.919 1.919s-1.919-0.859-1.919-1.919c0-1.060 0.859-1.919 1.919-1.919s1.919 0.859 1.919 1.919z"></path>
</symbol><symbol id="icon-twitter" viewBox="0 0 32 32">
<path d="M32 6.078c-1.19 0.522-2.458 0.868-3.78 1.036 1.36-0.812 2.398-2.088 2.886-3.626-1.268 0.756-2.668 1.29-4.16 1.588-1.204-1.282-2.92-2.076-4.792-2.076-3.632 0-6.556 2.948-6.556 6.562 0 0.52 0.044 1.020 0.152 1.496-5.454-0.266-10.28-2.88-13.522-6.862-0.566 0.982-0.898 2.106-0.898 3.316 0 2.272 1.17 4.286 2.914 5.452-1.054-0.020-2.088-0.326-2.964-0.808 0 0.020 0 0.046 0 0.072 0 3.188 2.274 5.836 5.256 6.446-0.534 0.146-1.116 0.216-1.72 0.216-0.42 0-0.844-0.024-1.242-0.112 0.85 2.598 3.262 4.508 6.13 4.57-2.232 1.746-5.066 2.798-8.134 2.798-0.538 0-1.054-0.024-1.57-0.090 2.906 1.874 6.35 2.944 10.064 2.944 12.072 0 18.672-10 18.672-18.668 0-0.29-0.010-0.57-0.024-0.848 1.302-0.924 2.396-2.078 3.288-3.406z"></path>
</symbol><symbol id="icon-facebook" viewBox="0 0 32 32">
<path d="M21.329 5.313h2.921v-5.088c-0.504-0.069-2.237-0.225-4.256-0.225-4.212 0-7.097 2.649-7.097 7.519v4.481h-4.648v5.688h4.648v14.312h5.699v-14.311h4.46l0.708-5.688h-5.169v-3.919c0.001-1.644 0.444-2.769 2.735-2.769z"></path>
</symbol><symbol id="icon-linkedin" viewBox="0 0 32 32">
<path d="M31.992 32v-0.001h0.008v-11.736c0-5.741-1.236-10.164-7.948-10.164-3.227 0-5.392 1.771-6.276 3.449h-0.093v-2.913h-6.364v21.364h6.627v-10.579c0-2.785 0.528-5.479 3.977-5.479 3.399 0 3.449 3.179 3.449 5.657v10.401h6.62z"></path>
<path d="M0.528 10.636h6.635v21.364h-6.635v-21.364z"></path>
<path d="M3.843 0c-2.121 0-3.843 1.721-3.843 3.843s1.721 3.879 3.843 3.879c2.121 0 3.843-1.757 3.843-3.879-0.001-2.121-1.723-3.843-3.843-3.843v0z"></path>
</symbol><symbol id="icon-Group" viewBox="0 0 30 32"><path fill="var(--color2, #212121)" d="M29.859 22.098l-8.443-8.505.937-4.616c.225.09.485.144.758.146h.033a2.16 2.16 0 10-2.029-1.42l-.005-.015-4.96.606L8.059.161a.53.53 0 00-.376-.16.536.536 0 00-.373.155L5.798 1.66a.535.535 0 000 .754l.814.825c-1.143 2.062-1.816 4.522-1.816 7.139 0 4.106 1.656 7.824 4.336 10.525l-.001-.001a.49.49 0 00.146.097 2.986 2.986 0 00-.052.546v6.188h-6.4a2.669 2.669 0 00-2.667 2.666v1.067c0 .295.239.534.534.534h24.534a.534.534 0 00.533-.534v-1.067a2.67 2.67 0 00-2.666-2.666h-6.4v-2.742a14.784 14.784 0 0010.166-1.502l-.077.039.818.823a.534.534 0 00.376.16.536.536 0 00.373-.155l1.512-1.504a.535.535 0 000-.754zM22.366 6.233a1.067 1.067 0 11.752 1.822h-.004a1.066 1.066 0 01-.747-1.822h-.002zM21.11 9.737l-.598 2.946-1.175-1.183 1.774-1.763zm-.606-.902l-1.92 1.909-1.486-1.493 3.406-.416zM23.09 28.8a1.6 1.6 0 011.6 1.6v.534H1.224V30.4a1.6 1.6 0 011.6-1.6h20.267zm-7.467-2.134v1.067h-5.334v-1.067h5.334zM10.29 25.6v-4.053c0-1.294 1.196-2.346 2.666-2.346s2.667 1.053 2.667 2.346V25.6H10.29zm6.4-1.696v-2.357c0-1.882-1.675-3.413-3.733-3.413h-.058c-1.353 0-2.54.707-3.213 1.771l-.009.016a13.817 13.817 0 01-3.812-9.55c0-2.314.567-4.496 1.569-6.414l-.036.077L26 22.743c-1.823.947-3.979 1.502-6.266 1.502-1.079 0-2.128-.124-3.136-.357l.093.018zm11.289-.684L6.922 2.039l.754-.752 7.935 7.98c.004 0 .006.007.01.01l13.115 13.191-.757.752z"/><path fill="var(--color1, #2196f3)" d="M14.79 20.267h-.007a1.6 1.6 0 00-.003 3.2h.007a1.6 1.6 0 00.002-3.2zm.373 1.978a.534.534 0 11-.378-.912.533.533 0 01.374.911h.005z"/></symbol><symbol id="icon-yaco" viewBox="0 0 29 32"><path  d="M5.818 0l4.252 4.025h11.86v11.228l4.252 4.025V0H5.818z"/><path  d="M2.327 3.855v18.728h19.782v-7.444L10.195 3.86l-7.868-.005zm16.014 15.988H5.458V7.247h.911V18.99h11.973v.852zM8.024 26.056l.476-.98h.398l-.694 1.307v.762h-.361v-.762l-.694-1.306h.399l.476.98zm2.043.606h-.801l-.168.482h-.374l.781-2.068h.323l.783 2.068h-.375l-.169-.482zm-.701-.289h.599l-.3-.858-.3.858zm2.117.213c0-.095.026-.183.078-.262.052-.081.155-.176.308-.286a1.312 1.312 0 01-.165-.251l-.003-.008a.491.491 0 01-.047-.206c0-.162.049-.29.148-.384s.231-.142.397-.142a.52.52 0 01.369.134.425.425 0 01.145.328v.002a.449.449 0 01-.067.238l.001-.002a.785.785 0 01-.212.214l-.003.002-.141.102.4.471a.82.82 0 00.086-.379h.3c0 .254-.059.463-.179.626l.304.36h-.4l-.116-.138a.849.849 0 01-.507.167h-.023.001c-.204 0-.368-.054-.491-.162a.541.541 0 01-.184-.407v-.019.001zm.685.311a.529.529 0 00.326-.116l-.451-.533-.044.031c-.113.086-.17.184-.17.296 0 .095.031.173.092.233.06.056.142.09.231.09h.018-.001zm-.191-1.333c0 .08.049.179.147.3l.157-.108.045-.035a.255.255 0 00.088-.193v-.008-.002a.18.18 0 00-.061-.135.213.213 0 00-.147-.058h-.017a.2.2 0 00-.151.068.253.253 0 00-.06.163v.009zm3.757.907c-.021.221-.102.393-.244.517s-.331.185-.567.185a.819.819 0 01-.436-.116.783.783 0 01-.288-.329l-.002-.005a1.186 1.186 0 01-.107-.495v-.2c0-.195.035-.367.104-.515a.79.79 0 01.297-.344.83.83 0 01.449-.121c.228 0 .412.062.551.186s.22.299.243.525h-.358c-.017-.148-.06-.255-.131-.321-.069-.066-.171-.099-.305-.099a.422.422 0 00-.361.172c-.083.114-.126.281-.128.502v.183c0 .223.04.394.12.511s.198.176.352.176c.141 0 .247-.032.318-.095s.116-.169.135-.317h.358zm1.973-.307c0 .202-.035.381-.105.534s-.171.27-.301.353a.83.83 0 01-.449.122.84.84 0 01-.449-.122.82.82 0 01-.302-.346l-.002-.005a1.217 1.217 0 01-.108-.505v-.02.001-.116c0-.202.035-.38.106-.534s.173-.272.303-.354c.131-.083.28-.124.449-.124s.318.041.448.122c.13.081.232.197.303.349s.107.329.108.531v.115zm-.359-.108c0-.229-.044-.405-.13-.527a.423.423 0 00-.349-.184h-.02.001-.015a.426.426 0 00-.349.182l-.001.001c-.087.121-.131.293-.134.515v.119c0 .227.044.403.133.527s.212.186.369.186a.422.422 0 00.367-.182c.086-.121.129-.298.129-.531v-.108z"/></symbol><symbol id="icon-tagline" viewBox="0 0 25 32"><path d="M10.447 1.806h.084c.156 0 .324.015.49.03a13.96 13.96 0 012.18.329V.403a12.432 12.432 0 00-2.207-.357l-.042-.002c-.254-.02-.57-.035-.889-.043H9.779c-1.523.006-3.04.201-4.514.582a18.266 18.266 0 00-4.79 1.948v17.475a18.922 18.922 0 014.431-1.75l.135-.029c1.123-.3 2.433-.51 3.78-.586l.052-.002h.052c.217-.011.433-.017.655-.018V15.83c-1.78.024-3.493.264-5.129.695l.147-.033c-.603.157-1.185.326-1.731.513l-.623.212V3.591l.266-.128C4.4 2.545 6.606 1.95 8.935 1.814l.047-.002.028-.001.029.001h-.001c.248-.012.497-.018.742-.018h.28c.129.003.258.006.388.014z"/><path d="M14.837 3.651h-.016c-.915 0-1.811-.077-2.684-.225l.094.013c-.277-.047-.55-.103-.814-.164V20.55c1.12.277 2.271.412 3.425.404a18.446 18.446 0 004.644-.61l-.128.029a18.299 18.299 0 004.877-1.995l-.085.047V1.262a19.021 19.021 0 01-4.429 1.751l-.136.03a19.345 19.345 0 01-4.746.609zm6.908.299l.623-.209v13.63l-.266.129c-.903.442-1.962.834-3.065 1.118l-.119.026c-1.331.345-2.7.521-4.074.527-.411 0-.818-.017-1.214-.052l-.426-.038V5.064l.497.033c.361.023.735.034 1.141.034a21.098 21.098 0 005.173-.663 28.128 28.128 0 001.731-.518zM1.684 25.977a.916.916 0 00-.661-.281l-.034.001h.002-.014c-.139 0-.272.028-.393.078l.007-.003a.904.904 0 00-.51.512l-.002.006a1.001 1.001 0 00-.071.386v2.335c-.006.164.026.328.092.479.055.12.135.226.234.313a.824.824 0 00.32.166c.114.031.231.048.349.048a.985.985 0 00.968-.982v-.261H1.36v.222c0 .07-.013.136-.037.198l.001-.004a.38.38 0 01-.089.132.426.426 0 01-.255.089.308.308 0 01-.286-.125l-.001-.001a.548.548 0 01-.082-.289l.001-.024v.001-2.177a.74.74 0 01.075-.349.31.31 0 01.262-.143l.038.002H.986h.012c.107 0 .201.052.26.131l.001.001a.493.493 0 01.101.3v.014-.001.202h.604v-.238-.011c0-.143-.027-.28-.077-.405l.003.007a.955.955 0 00-.205-.329zm3.626-.026a1.051 1.051 0 00-1.058-.191.965.965 0 00-.557.511l-.002.006a1.08 1.08 0 00-.089.452v2.239c-.004.158.026.314.089.458a.888.888 0 00.236.313.964.964 0 00.322.197 1.049 1.049 0 001.059-.198l-.001.001a.948.948 0 00.23-.313c.063-.144.093-.301.089-.458v-2.239-.02c0-.156-.033-.305-.092-.439l.003.007a1.016 1.016 0 00-.23-.327zm-.285 3.018l.002.035a.398.398 0 01-.123.289.446.446 0 01-.575 0l.001.001a.398.398 0 01-.121-.326v.002-2.239l-.001-.034a.4.4 0 01.123-.289.446.446 0 01.575 0l-.001-.001a.398.398 0 01.121.326v-.002 2.24zm5.047 1v-4.24h-.586l-.771 2.244h-.01l-.777-2.244h-.58v4.239h.606V27.39h.011l.593 1.823h.302l.598-1.823h.01v2.578h.606zm3.441-3.942a.834.834 0 00-.342-.232 1.31 1.31 0 00-.416-.066h-.024.001-.9v4.24h.604v-1.656h.311c.189.009.376-.031.545-.116a.88.88 0 00.329-.32l.002-.004a1 1 0 00.138-.369c.021-.133.033-.287.033-.444v-.04.002a2.426 2.426 0 00-.059-.606.906.906 0 00-.223-.39zm-.312 1.292a.538.538 0 01-.057.224l.001-.003a.342.342 0 01-.154.147l-.002.001a.617.617 0 01-.254.054l-.033-.001h.002-.276V26.3h.311l.029-.001c.088 0 .172.02.247.055l-.004-.002a.35.35 0 01.141.154l.001.002a.62.62 0 01.053.236v.282c0 .098.006.201 0 .291H13.2zm3.173-1.59h-.495l-.934 4.24h.604l.177-.911h.823l.178.911h.604l-.958-4.24zm-.557 2.752l.297-1.537h.011l.295 1.537h-.604zm4.46-.198h-.011l-.912-2.554h-.581v4.24h.604v-2.55h.012l.923 2.549h.568v-4.239h-.604v2.554zm3.691-2.554l-.486 1.686h-.012l-.486-1.686h-.639l.83 2.448v1.791h.604v-1.791l.83-2.447h-.64zM0 31.166h.291v.817h.198v-.817h.289v-.167H0v.168zm2.447-.168l-.382.985h.21l.081-.224h.392l.084.224h.215l-.391-.985h-.21zm-.03.595l.134-.365.134.365h-.268zm2.449.027h.228v.127a.378.378 0 01-.234.083h-.014a.25.25 0 01-.195-.094.406.406 0 01-.073-.234l.001-.023v.001c0-.219.095-.329.283-.329l.021-.001c.097 0 .178.067.201.157v.001l.194-.038c-.042-.192-.18-.289-.417-.289h-.013a.492.492 0 00-.331.127.48.48 0 00-.141.38v-.002.023c0 .132.048.254.127.347l-.001-.001c.087.09.209.146.343.146L4.877 32h-.001.016c.155 0 .296-.06.402-.157v-.388h-.426v.166zm2.471-.622h-.199v.985h.689v-.167h-.49v-.817zm2.089 0h-.199v.985h.199v-.985zm2.043.657l-.404-.657h-.193v.985h.185v-.643l.396.643h.198v-.985h-.182v.658zm1.846-.106h.49v-.167h-.49v-.215h.527v-.168h-.727v.985h.747v-.167h-.548v-.266zm4.477-.163h-.388v-.388h-.197v.984h.197v-.431h.388v.431h.198v-.985h-.198v.388zm1.857.163h.492v-.167h-.492v-.215h.529v-.168h-.726v.985h.746v-.167h-.548v-.266zm2.519.001c.171-.027.258-.118.258-.274a.23.23 0 00-.096-.219h-.001a.555.555 0 00-.25-.059l-.04.001h.002-.417v.984h.198v-.412h.055c.039 0 .076.008.109.023l-.002-.001a.201.201 0 01.07.072l.215.313h.236l-.12-.192a.704.704 0 00-.215-.235l-.002-.002zm-.199-.137h-.146v-.247h.156a.515.515 0 01.205.024l-.004-.001a.13.13 0 01-.009.2.537.537 0 01-.164.025l-.039-.001h.002zm2.099.136h.49v-.167h-.49v-.215h.529v-.168h-.729v.985h.747v-.167h-.548v-.266z"/></symbol><symbol id="icon-company" viewBox="0 0 31 32"><path d="M4.722 31.103c.023.001.044.01.06.025l.153.161c-.119.13-.266.234-.431.304a1.533 1.533 0 01-.61.109h-.031a1.5 1.5 0 01-.554-.106l.01.004a1.25 1.25 0 01-.709-.725l-.003-.009a1.591 1.591 0 01-.097-.55v-.022-.022c0-.198.038-.387.108-.56l-.004.01a1.318 1.318 0 01.757-.734c.188-.07.389-.104.591-.102a1.47 1.47 0 01.55.093c.151.063.29.149.412.257l-.129.171a.134.134 0 01-.032.031.077.077 0 01-.045.014h-.006a.107.107 0 01-.056-.019l-.068-.045-.096-.059a1.024 1.024 0 00-.296-.101l-.006-.001a1.233 1.233 0 00-.209-.018h-.02.001-.016c-.147 0-.288.028-.417.079l.008-.003a.964.964 0 00-.333.216 1.002 1.002 0 00-.216.342 1.248 1.248 0 00-.079.452c-.002.156.025.313.079.46.046.126.119.242.212.341a.863.863 0 00.318.212c.125.049.259.074.394.073.078.001.156-.004.234-.015a.879.879 0 00.505-.235.115.115 0 01.072-.03zm4.422-.807c.002.194-.033.387-.103.568a1.246 1.246 0 01-.288.44 1.314 1.314 0 01-.444.286l-.009.003a1.695 1.695 0 01-1.176-.004l.012.004a1.331 1.331 0 01-.45-.29 1.3 1.3 0 01-.288-.436l-.003-.009a1.614 1.614 0 01.004-1.147l-.004.011a1.34 1.34 0 01.29-.447 1.32 1.32 0 01.441-.276l.009-.003A1.674 1.674 0 018.311 29l-.012-.004a1.29 1.29 0 01.741.729c.071.182.106.376.104.571zm-.402 0v-.024c0-.155-.027-.303-.076-.441l.003.009a.907.907 0 00-.522-.554l-.006-.002a1.219 1.219 0 00-.855.003l.009-.003a.903.903 0 00-.528.55l-.002.006a1.465 1.465 0 000 .912.899.899 0 00.524.552l.006.002c.273.097.573.097.846 0a.903.903 0 00.324-.214.972.972 0 00.205-.341 1.29 1.29 0 00.073-.456zm3.418.478l.041.102c.015-.036.028-.069.044-.102.017-.04.034-.073.052-.105l-.002.005.978-1.694c.019-.03.037-.048.056-.053a.234.234 0 01.066-.009h.015-.001.289v2.755h-.342v-2.11l-.001-.048.001-.05v.002l-.984 1.718a.149.149 0 01-.057.062h-.001a.16.16 0 01-.082.022h-.057a.151.151 0 01-.141-.084v-.001l-1.013-1.73v2.212h-.331v-2.75h.303a.22.22 0 01.068.01h-.002a.107.107 0 01.053.052v.001l.999 1.696c.018.028.035.06.048.094l.001.004zm3.681-.136v1.031h-.383v-2.75h.887c.158 0 .311.022.455.063l-.012-.003a.927.927 0 01.337.171c.085.074.15.167.191.27a.925.925 0 01.066.352.84.84 0 01-.071.352.772.772 0 01-.205.274l-.001.001a.953.953 0 01-.333.181l-.007.002a1.498 1.498 0 01-.461.064l-.463-.007zm0-.296h.464c.1.002.201-.013.296-.042a.627.627 0 00.215-.12l-.001.001c.056-.049.1-.11.129-.178l.001-.003a.565.565 0 00.046-.225v-.008l.001-.028a.506.506 0 00-.041-.199l.001.003a.544.544 0 00-.133-.188.763.763 0 00-.517-.148h.003-.464v1.134zm5.146 1.331h-.308a.134.134 0 01-.079-.026.168.168 0 01-.049-.063v-.001l-.26-.665h-1.307l-.27.665a.152.152 0 01-.047.061.135.135 0 01-.082.028h-.307l1.148-2.756h.398l1.164 2.756zm-1.895-1.023h1.079l-.455-1.122a1.845 1.845 0 01-.083-.245l-.003-.013-.044.144a1.282 1.282 0 01-.045.126l.003-.009-.452 1.119zm3.548-1.72c.023.013.043.03.058.05l1.674 2.076v-2.139h.342v2.756h-.196a.164.164 0 01-.074-.017h.001a.233.233 0 01-.061-.051L22.71 29.53a.753.753 0 010 .095v2.049h-.342v-2.756h.203c.024 0 .047.004.068.013zm4.897 1.647v1.094h-.383v-1.094l-1.058-1.66H26.446c.028 0 .054.009.075.024a.251.251 0 01.052.061l.001.001.662 1.07a1.363 1.363 0 01.116.244l.05-.118a.93.93 0 01.068-.13l-.002.004.653-1.078a.284.284 0 01.05-.059.117.117 0 01.076-.027h.352l-1.06 1.667zm-15.566-6.284c.167.02.335.037.506.051 2.582-1.101 4.767-2.902 6.281-5.18s2.29-4.93 2.231-7.625l-2.846-2.712c.189.894.297 1.921.297 2.974 0 2.015-.396 3.937-1.115 5.694l.036-.1c-1.09 2.731-2.957 5.12-5.39 6.899z"/><path  d="M10.954 24.167l.077.015c2.6-1.773 4.583-4.247 5.692-7.104.627-1.564.991-3.378.991-5.276 0-1.296-.17-2.553-.488-3.748l.023.101-4.054-3.862c1.269 2.397 2.015 5.239 2.015 8.255 0 .701-.04 1.393-.119 2.074l.008-.083c-.397 3.519-1.834 6.857-4.144 9.628zm13.75-9.443c-.688 2.962-2.361 5.632-4.77 7.616a14.98 14.98 0 01-2.191 1.51l-.075.039a13.579 13.579 0 005.285-2.851l-.016.013a12.774 12.774 0 003.381-4.679l.031-.084-1.645-1.565z"/><path d="M24.06 14.288l-2.341-2.23a13.684 13.684 0 01-2.23 7.249l.032-.053c-1.394 2.169-3.373 3.943-5.729 5.137h.012c.525 0 1.049-.03 1.572-.089a14.47 14.47 0 005.649-3.95l.014-.017a13.397 13.397 0 003.005-5.958l.016-.089zM11.294 2.664L8.501 0c-2.497.919-4.644 2.535-6.16 4.636S.008 9.225.001 11.775c.01 2.818 1.005 5.552 2.829 7.77s4.372 3.793 7.242 4.476c2.562-2.973 4.061-6.647 4.281-10.488s-.851-7.648-3.059-10.87zm19.218 11.214c-.01-3.343-1.409-6.547-3.89-8.91s-5.843-3.696-9.352-3.706a13.67 13.67 0 00-4.741.841l17.099 16.29c.559-1.335.884-2.886.884-4.513v-.001z"/></symbol><symbol id="icon-foster" viewBox="0 0 51 32"><path d="M9.229 9.548h-.002c-1.683 0-3.048 1.331-3.048 2.971v.002c0 1.64 1.365 2.971 3.048 2.971h.002c1.683 0 3.048-1.331 3.048-2.971v-.002c0-1.64-1.365-2.97-3.048-2.97zm22.501-.949a8.508 8.508 0 00-2.59-6.075A8.954 8.954 0 0022.909 0c-2.339.004-4.581.912-6.236 2.523s-2.585 3.797-2.59 6.076v12.566S31.728 19.25 31.73 8.601v-.002zM0 25.289a5.909 5.909 0 001.801 4.226l.002.001a6.223 6.223 0 004.336 1.758 6.215 6.215 0 004.337-1.759l-.002.002a5.905 5.905 0 001.803-4.224v-8.746S-.001 17.882-.001 25.29zm6.14 1.566h-.003c-.331 0-.639-.098-.897-.267l.006.004a1.583 1.583 0 01-.588-.693l-.004-.01a1.511 1.511 0 01-.089-.914l-.002.01a1.56 1.56 0 01.441-.802c.22-.213.5-.365.813-.427l.01-.002c.312-.061.635-.03.929.089s.545.319.722.577a1.546 1.546 0 01.146 1.481l.004-.01c-.08.191-.199.365-.348.511s-.327.262-.522.341a1.61 1.61 0 01-.616.12h-.001v-.006zm12.532-.971h-1.256v1.297h-.655v-3.173h2.067v.53h-1.412v.819h1.255v.528zm3.143-.218c0 .313-.056.586-.166.822s-.269.417-.476.545a1.29 1.29 0 01-.682.192h-.025.001l-.039.001c-.504 0-.939-.296-1.141-.723l-.003-.008c-.109-.23-.173-.5-.173-.785v-.028.001-.158c0-.313.056-.588.168-.825a1.26 1.26 0 01.477-.547c.206-.128.442-.192.707-.192s.499.064.704.192c.206.127.365.309.477.547s.17.511.17.822v.141zm-.662-.144c0-.333-.06-.586-.179-.759a.585.585 0 00-.485-.26l-.027.001h.001-.024a.58.58 0 00-.482.256l-.001.002c-.119.17-.18.42-.182.749v.155c0 .324.06.576.179.755s.291.268.515.268l.026.001c.2 0 .375-.101.479-.255l.001-.002c.118-.173.177-.424.179-.755v-.155zm2.783.826v-.018a.329.329 0 00-.131-.264l-.001-.001c-.087-.067-.244-.137-.47-.21a3.363 3.363 0 01-.558-.227l.019.009c-.36-.195-.541-.457-.541-.787 0-.171.048-.324.144-.458s.236-.24.417-.316c.182-.075.385-.113.61-.113s.429.042.606.124a.947.947 0 01.412.347c.099.15.149.32.149.511h-.655a.422.422 0 00-.137-.338c-.092-.082-.22-.123-.386-.123-.16 0-.284.034-.372.103a.315.315 0 00-.134.259v.008c0 .103.052.189.155.259.105.07.258.135.461.196.372.112.643.251.813.417s.255.372.255.618c0 .275-.104.491-.312.647s-.487.234-.839.234c-.244 0-.467-.045-.667-.133a1.081 1.081 0 01-.458-.365l-.002-.003a.934.934 0 01-.157-.522v-.019.001h.656c0 .35.21.525.628.525a.616.616 0 00.365-.094.312.312 0 00.131-.253v-.014.001zm3.491-1.812h-.973v2.645H25.8v-2.644h-.959v-.53h2.586v.53zm2.285 1.269h-1.256v.85h1.474v.525h-2.128v-3.173h2.124v.53h-1.47v.756h1.256v.513zm1.777.214h-.521v1.162h-.655v-3.173h1.18c.374 0 .664.083.868.251s.305.403.305.708a.992.992 0 01-.141.543.955.955 0 01-.419.341l-.006.002.687 1.297v.03h-.703l-.595-1.162zm-.521-.53h.528c.164 0 .291-.042.381-.124a.45.45 0 00.136-.323l-.001-.025v.001a.474.474 0 00-.129-.353c-.084-.086-.214-.129-.39-.129h-.526v.953zm3.963.574v1.118h-.655v-3.173h1.239c.238 0 .447.043.628.131s.321.211.418.372c.097.16.146.342.146.548 0 .311-.106.557-.32.737-.212.179-.506.268-.883.268h-.573zm0-.53h.584c.173 0 .305-.041.394-.123.092-.081.138-.197.138-.348l.001-.023a.522.522 0 00-.139-.355.519.519 0 00-.38-.149h-.599v.997zm4.139.272h-1.256v.85h1.474v.525H37.16v-3.173h2.124v.53h-1.469v.756h1.255v.513zm3.034-1.269h-.972v2.645h-.655v-2.644h-.959v-.53h2.585v.53zm2.285 1.269h-1.256v.85h1.474v.525h-2.128v-3.173h2.124v.53h-1.47v.756h1.256v.513zm1.777.214h-.521v1.162h-.654v-3.173h1.18c.375 0 .665.083.868.251s.305.403.305.708a.983.983 0 01-.141.543.95.95 0 01-.419.341l-.006.002.687 1.297v.03h-.703l-.595-1.162zm-.521-.53h.528c.164 0 .29-.042.381-.124a.448.448 0 00.135-.322l-.001-.026v.001a.474.474 0 00-.128-.353c-.085-.086-.214-.129-.391-.129h-.525v.953zm3.843.859l.001-.018a.334.334 0 00-.13-.264l-.001-.001c-.088-.067-.245-.137-.471-.21a3.363 3.363 0 01-.558-.227l.019.009c-.36-.195-.541-.457-.541-.787 0-.171.048-.324.144-.458s.236-.24.417-.316c.181-.075.385-.113.61-.113s.429.042.606.124a.953.953 0 01.412.347c.099.15.149.32.149.511h-.655a.422.422 0 00-.137-.338c-.092-.082-.22-.123-.386-.123-.16 0-.284.034-.372.103a.315.315 0 00-.134.259v.008c0 .103.052.189.155.259.105.07.258.135.46.196.372.112.644.251.813.417s.255.372.255.618c0 .275-.104.491-.312.647s-.487.234-.839.234c-.244 0-.467-.045-.667-.133a1.087 1.087 0 01-.458-.365l-.002-.003a.934.934 0 01-.157-.522v-.019.001h.656c0 .35.208.525.627.525a.616.616 0 00.365-.094.311.311 0 00.13-.253v-.014.001z"/></symbol><symbol id="icon-brand" viewBox="0 0 40 32"><path d="M3.056 26.742c.157.194.24.438.236.688l.001.053c0 .324-.141.615-.365.815l-.001.001a1.575 1.575 0 01-1.061.317H.001v-4.361h1.827a1.548 1.548 0 011.017.294l-.004-.003a.994.994 0 01.353.818v-.003c.011.24-.065.477-.212.667a.99.99 0 01-.556.34c.247.046.471.177.63.373zm-2.188-.658h.78a.733.733 0 00.497-.145.518.518 0 00.169-.383l-.002-.045v.002l.001-.037a.535.535 0 00-.167-.389.75.75 0 00-.514-.147h.003-.767v1.144zm1.354 1.672a.542.542 0 00.186-.408l-.001-.036v.002l.001-.032a.552.552 0 00-.189-.416l-.001-.001a.8.8 0 00-.48-.159l-.054.002h.002-.818v1.199h.829a.816.816 0 00.524-.151zm4.568.861l-1.016-1.704h-.382v1.704h-.874v-4.361h1.654a1.624 1.624 0 011.156.373l-.003-.002a1.391 1.391 0 01.12 1.808l.003-.004a1.337 1.337 0 01-.789.443l1.083 1.743h-.95zm-1.398-2.299h.715c.497 0 .745-.22.745-.66l.001-.037a.647.647 0 00-.184-.453.767.767 0 00-.566-.177h.003-.724l.009 1.328zm6.176 1.421H9.826l-.308.878h-.916l1.6-4.313h.991l1.593 4.312h-.916l-.301-.878zm-.233-.66l-.637-1.84-.637 1.84h1.273zm6.215 1.538h-.869l-1.946-2.965v2.965h-.865v-4.361h.865l1.946 2.982v-2.982h.868v4.361zm4.952-1.044c-.182.33-.45.593-.775.764l-.01.005a2.545 2.545 0 01-1.22.274h-1.546v-4.361h1.546l.067-.001c.42 0 .817.1 1.168.277l-.015-.007c.332.168.606.433.786.761.171.333.272.727.272 1.144s-.1.811-.278 1.158l.007-.014zm-.993-.104c.239-.278.384-.642.384-1.041s-.145-.763-.386-1.043l.002.002a1.5 1.5 0 00-1.091-.371h.004-.603v2.823h.603a1.496 1.496 0 001.088-.372l-.002.001zM12.111 0s11.201 4.246 10.964 10.39v10.392S11.882 16.534 12.116 10.39L12.111 0zm20.942 18.349a15.15 15.15 0 017.049-2.628l.068-.006v-3.253c-2.995 1.181-5.437 3.227-7.081 5.827l-.035.06z"/><path d="M31.782 19.329c1.749-3.487 4.693-6.158 8.283-7.513l.105-.035V2.408S24.218 8.456 24.555 17.205v14.796s.711-.27 1.829-.778c0-.473 0-.95.05-1.43a15.388 15.388 0 015.327-10.447l.021-.017z"/><path d="M30.266 24.825a15.3 15.3 0 01.558-3.03 14.243 14.243 0 00-3.378 8.921v.016a44.08 44.08 0 003.286-1.741l-.218.118c-.191-.908-.3-1.952-.3-3.021 0-.445.019-.885.056-1.32l-.004.057zm.634.053a14.803 14.803 0 00.212 3.971l-.015-.092c4.358-2.619 9.255-6.664 9.067-11.553v-.426a14.265 14.265 0 00-8.297 3.894l.005-.005a14.228 14.228 0 00-.968 4.158l-.003.052z"/></symbol><symbol id="icon-tag" viewBox="0 0 62 32"><path d="M31.123 14.854a2.248 2.248 0 01-.396-1.437v.007-2.074c0-.637.132-1.12.394-1.45s.715-.495 1.356-.494c.602 0 1.03.141 1.282.422.275.359.41.798.379 1.241v.487h-1.077v-.494l.001-.064c0-.148-.012-.293-.034-.435l.002.016a.482.482 0 00-.153-.287.575.575 0 00-.345-.113l-.048.002h.002a.616.616 0 00-.412.119l.002-.001a.568.568 0 00-.178.313l-.001.004a2.594 2.594 0 00-.042.513v2.518a1.425 1.425 0 00.142.715l-.004-.008a.526.526 0 00.212.171l.003.001a.544.544 0 00.28.04h-.003a.545.545 0 00.382-.115l-.001.001a.522.522 0 00.16-.303v-.003c.026-.167.037-.336.034-.504v-.511h1.077v.466a2.015 2.015 0 01-.377 1.311l.004-.006c-.247.308-.669.462-1.288.462s-1.088-.164-1.354-.506zm4.485.022c-.272-.323-.408-.794-.408-1.416v-2.183c0-.616.136-1.082.408-1.399s.726-.474 1.364-.473c.633 0 1.085.158 1.358.473.271.317.41.783.41 1.399v2.183c0 .616-.139 1.089-.415 1.414-.277.325-.727.487-1.354.487s-1.09-.164-1.364-.485zm1.865-.524c.097-.202.142-.424.129-.646v-2.672l.002-.072a1.28 1.28 0 00-.133-.569l.003.007a.528.528 0 00-.216-.173l-.003-.001a.533.533 0 00-.287-.037h.003a.546.546 0 00-.289.039l.004-.001a.527.527 0 00-.219.172l-.001.001a1.242 1.242 0 00-.129.633v2.685a1.29 1.29 0 00.129.646.672.672 0 00.222.158l.004.002a.692.692 0 00.558-.002l-.005.002a.672.672 0 00.226-.16v-.013zm2.562-4.884h1.16l.872 4.028.892-4.028h1.128l.113 5.813h-.833l-.089-4.04-.861 4.04h-.669l-.892-4.054-.083 4.054h-.843l.104-5.812zm5.465 0h1.806c1.04 0 1.56.55 1.56 1.651 0 1.054-.547 1.58-1.643 1.579h-.614v2.583h-1.115l.007-5.812zm1.543 2.484c.11.014.222.004.327-.028a.78.78 0 00.286-.155 1.01 1.01 0 00.16-.657l.001-.067c0-.163-.02-.322-.057-.474l.003.014a.425.425 0 00-.083-.161l.001.001a.484.484 0 00-.139-.116l-.002-.001a1.055 1.055 0 00-.499-.092h.003-.433v1.736h.433zm3.431-2.484h1.197l1.229 5.813h-1.039l-.243-1.341H50.55l-.25 1.341h-1.055l1.229-5.812zm1.023 3.799l-.417-2.44-.417 2.44h.835zm2.395-3.799h.779l1.494 3.316V9.468h.925v5.812h-.742l-1.503-3.462v3.462h-.957l.002-5.812zm5.366 3.596l-1.242-3.588h1.046l.758 2.305.711-2.305h1.023l-1.226 3.588v2.216h-1.071v-2.216zm-26.413 4.758v.304h-.91v2.362h-.381v-2.362h-.914v-.304h2.205zm2.852 2.666h-.302a.124.124 0 01-.075-.026.134.134 0 01-.048-.06v-.001l-.263-.633h-1.262l-.264.633a.181.181 0 01-.04.072.124.124 0 01-.076.025h-.301l1.115-2.666h.387l1.128 2.655zm-1.847-.99h1.053l-.446-1.085a1.908 1.908 0 01-.08-.236l-.003-.014-.042.141-.04.111-.442 1.083zm3.769.728c.07.003.139.003.209 0 .061-.006.12-.017.179-.032a1.3 1.3 0 00.169-.052l-.009.003c.049-.019.099-.042.15-.065v-.6h-.451a.082.082 0 01-.055-.021.057.057 0 01-.022-.046v-.208h.865v1.022a1.61 1.61 0 01-.459.214l-.012.003a1.747 1.747 0 01-.269.055l-.009.001a2.896 2.896 0 01-.321.017h-.018c-.197 0-.386-.037-.56-.103l.011.004a1.34 1.34 0 01-.446-.279l.001.001a1.293 1.293 0 01-.285-.414l-.003-.008a1.424 1.424 0 01-.103-.535v-.018-.016c0-.195.037-.38.105-.551l-.004.01c.064-.158.161-.301.287-.422.127-.12.279-.214.446-.277a1.71 1.71 0 01.598-.099c.104 0 .207.007.31.023.09.014.179.036.266.067a1.2 1.2 0 01.223.106c.069.042.134.088.195.139l-.108.165a.103.103 0 01-.036.036.098.098 0 01-.051.014.137.137 0 01-.07-.021h.001a1.281 1.281 0 01-.114-.066l.005.003a.905.905 0 00-.143-.07l-.007-.002a1.21 1.21 0 00-.197-.058l-.008-.001a1.495 1.495 0 00-.268-.023h-.016.001-.013c-.15 0-.293.027-.425.077l.008-.003a.912.912 0 00-.328.211.924.924 0 00-.207.332 1.338 1.338 0 00.003.898l-.003-.009c.049.125.125.24.223.335a.935.935 0 00.326.211c.142.046.292.064.442.053zm3.553-.042h1.217v.304h-1.59v-2.666h.381l-.009 2.362zm2.484.303h-.381v-2.664h.381v2.666zm1.418-2.653a.192.192 0 01.057.048l1.63 2.01-.002-.048.002-.05v.002-1.986h.332v2.676h-.191l-.013.001a.171.171 0 01-.071-.016h.001a.266.266 0 01-.06-.05l-1.628-2.007v2.072h-.319v-2.665h.198c.022 0 .043.004.063.013zm4.827-.012v.294H48.55v.88h1.095v.282H48.55v.91h1.351v.294h-1.743v-2.659h1.743zM9.95 1.359l16.929 4.55v15.946L9.952 17.308V1.359zM8.865 0v18.081l19.098 5.135V5.136L8.865-.001z"/><path d="M19.1 31.61L0 26.471V8.391l19.1 5.137V31.61z"/><path d="M9.181 1.155l16.707 4.493-7.105 6.728-16.71-4.495L9.18 1.154zM8.865 0L0 8.392l19.1 5.137 8.863-8.392L8.865 0zm11.31 30.593l7.788-7.374-7.788-2.096v9.47z"/></symbol><symbol id="icon-smartphone" viewBox="0 0 20 32"><path d="M17 0H3C1.346 0 0 1.346 0 3v26c0 1.654 1.346 3 3 3h14c1.654 0 3-1.346 3-3V3c0-1.654-1.346-3-3-3zM3 2h14a1 1 0 011 1v21H2V3a1 1 0 011-1zm14 28H3a1 1 0 01-1-1v-3h16v3a1 1 0 01-1 1z"/><path d="M4.708 27.478a.889.889 0 01.001 1.319l-.001.001a1.048 1.048 0 01-1.417 0l.001.001a.889.889 0 01-.001-1.319l.001-.001a1.048 1.048 0 011.417 0l-.001-.001z"/></symbol></defs><symbol id="icon-close" viewBox="0 0 32 32">
<path d="M32 3.223l-3.223-3.223-12.777 12.777-12.777-12.777-3.223 3.223 12.777 12.777-12.777 12.777 3.223 3.223 12.777-12.777 12.777 12.777 3.223-3.223-12.777-12.777 12.777-12.777z"></path>
</symbol>
<symbol id="icon-useremail" viewBox="0 0 43 32">
<path d="M37.333 0h-32c-2.2 0-3.98 1.8-3.98 4l-0.020 24c0 2.2 1.8 4 4 4h32c2.2 0 4-1.8 4-4v-24c0-2.2-1.8-4-4-4zM36.533 8.5l-14.14 8.84c-0.64 0.4-1.48 0.4-2.12 0l-14.14-8.84c-0.5-0.32-0.8-0.86-0.8-1.44 0-1.34 1.46-2.14 2.6-1.44l13.4 8.38 13.4-8.38c1.14-0.7 2.6 0.1 2.6 1.44 0 0.58-0.3 1.12-0.8 1.44z"></path>
</symbol>
<symbol id="icon-username" viewBox="0 0 32 32">
<path d="M16 16c4.42 0 8-3.58 8-8s-3.58-8-8-8c-4.42 0-8 3.58-8 8s3.58 8 8 8zM16 20c-5.34 0-16 2.68-16 8v2c0 1.1 0.9 2 2 2h28c1.1 0 2-0.9 2-2v-2c0-5.32-10.66-8-16-8z"></path>
</symbol>
<symbol id="icon-userphone" viewBox="0 0 32 32">
<path d="M27.419 20.852l-4.201-0.48c-1.009-0.116-2.002 0.232-2.713 0.943l-3.044 3.044c-4.681-2.382-8.519-6.203-10.901-10.901l3.060-3.060c0.711-0.711 1.059-1.704 0.943-2.713l-0.48-4.168c-0.198-1.671-1.604-2.928-3.292-2.928h-2.862c-1.869 0-3.424 1.555-3.308 3.424 0.877 14.126 12.174 25.407 26.284 26.284 1.869 0.116 3.424-1.439 3.424-3.308v-2.861c0.016-1.671-1.241-3.077-2.911-3.275z"></path>
</symbol><symbol id="icon-send" viewBox="0 0 32 32">
<path d="M32 0l-32 18 10.227 3.788 15.773-14.788-11.998 16.186 0.010 0.004-0.012-0.004v8.814l5.735-6.691 7.265 2.691 5-28z"></path>
</symbol><symbol id="icon-checkbox" viewBox="0 0 42 32">
<path fill="#fff" style="fill: var(--color1, #fff); stroke: var(--color1, #fff)" stroke="#fff" stroke-linejoin="miter" stroke-linecap="butt" stroke-miterlimit="4" stroke-width="0.64" d="M6.263 15.205l-0.22-0.21-3.307 3.132 11.651 11.114 24.477-23.351-3.285-3.134-21.192 20.197-8.124-7.75z"></path>
</symbol>
<symbol id="icon-menu" viewBox="0 0 48 32">
<path d="M0 5.333v-5.333h48v5.333h-48zM0 18.667h48v-5.333h-48v5.333zM0 32h48v-5.333h-48v5.333z"></path>
</symbol>
</svg>
